<svg xmlns="http://www.w3.org/2000/svg" viewBox="0 0 64 64" fill="none">
  <rect width="64" height="64" rx="12" fill="#2C3E40"/>
  <path
    d="M32 14c0 0 1.2 3.2 1.2 6.2S32.8 26 32 28c-.8-2-1.2-4.8-1.2-7.8S32 14 32 14Z"
    fill="#B2C4A9"
  />
  <path
    d="M32 20c-3.2-1.6-7.2-1.2-9.2.8 2.4 1.2 5.6 2 9.2 1.6 3.6.4 6.8-.4 9.2-1.6-2-2-6-2.4-9.2-.8Z"
    fill="#B2C4A9"
  />
  <path
    d="M32 24c-2.8 1.2-6.4 2-8.4 3.6 2.8.4 5.6.2 8.4-.8 2.8 1 5.6 1.2 8.4.8-2-1.6-5.6-2.4-8.4-3.6Z"
    fill="#B2C4A9"
  />
  <text
    x="32"
    y="46"
    text-anchor="middle"
    fill="#FFFFFF"
    font-family="Georgia, serif"
    font-size="9"
    font-weight="600"
  >MG</text>
</svg>
