<svg xmlns="http://www.w3.org/2000/svg" viewBox="0 0 64 64" fill="none">
  <!-- transparent canvas; sage leaf mark -->
  <path d="M32 14v36" stroke="#2A3326" stroke-width="1.5" stroke-linecap="round"/>
  <path d="M32 16c-3.2-5.5 3.2-9.2 6.4-5-1.4 2.8-3.7 4.6-6.4 5Z" fill="#A8B89A"/>
  <path d="M32 16c3.2-5.5-3.2-9.2-6.4-5 1.4 2.8 3.7 4.6 6.4 5Z" fill="#C0CEB4"/>
  <path d="M32 27c-7.5-1.8-11.2 3.8-8.4 8.5 3.7.4 7-2.4 8.4-8.5Z" fill="#C0CEB4"/>
  <path d="M32 27c7.5-1.8 11.2 3.8 8.4 8.5-3.7.4-7-2.4-8.4-8.5Z" fill="#A8B89A"/>
  <path d="M32 38c-7.2 0-10.2 5.5-7.4 9.4 3.2.7 6-1.9 7.4-9.4Z" fill="#C0CEB4"/>
  <path d="M32 38c7.2 0 10.2 5.5 7.4 9.4-3.2.7-6-1.9-7.4-9.4Z" fill="#A8B89A"/>
  <path d="M32 27c-4.6.8-7 4.6-6 8" stroke="#2A3326" stroke-width="0.9" stroke-linecap="round"/>
  <path d="M32 27c4.6.8 7 4.6 6 8" stroke="#2A3326" stroke-width="0.9" stroke-linecap="round"/>
</svg>
